HIERARCHY
ROOT newVegas:Hips
{
	OFFSET 0.000000 96.479958 0.000000
	CHANNELS 6 Xposition Yposition Zposition Xrotation Yrotation Zrotation
	JOINT newVegas:Pelvis
	{
		OFFSET 0.000000 0.000000 0.000000
		CHANNELS 3 Xrotation Yrotation Zrotation
		JOINT newVegas:LeftUpLeg
		{
			OFFSET 18.735201 -5.666702 -4.541200
			CHANNELS 3 Xrotation Yrotation Zrotation
			JOINT newVegas:LeftLeg
			{
				OFFSET -0.021200 -31.938179 0.493100
				CHANNELS 3 Xrotation Yrotation Zrotation
				JOINT newVegas:LeftFoot
				{
					OFFSET 0.021200 -31.938179 -4.336299
					CHANNELS 3 Xrotation Yrotation Zrotation
					JOINT newVegas:LeftToeBase
					{
						OFFSET 0.943001 -26.722000 15.023500
						CHANNELS 3 Xrotation Yrotation Zrotation
						End Site
						{
							OFFSET 0.000000 30.670183 0.000000
						}
					}
				}
				JOINT newVegas:Left_PantLeg
				{
					OFFSET 0.663870 -9.044666 -1.108900
					CHANNELS 3 Xrotation Yrotation Zrotation
					End Site
					{
						OFFSET 1.415995 20.635357 0.000000
					}
				}
			}
		}
		JOINT newVegas:RightUpLeg
		{
			OFFSET -18.735201 -5.666702 -4.541200
			CHANNELS 3 Xrotation Yrotation Zrotation
			JOINT newVegas:RightLeg
			{
				OFFSET 0.018946 -31.938133 0.493100
				CHANNELS 3 Xrotation Yrotation Zrotation
				JOINT newVegas:RightFoot
				{
					OFFSET -0.018946 -31.938126 -4.336299
					CHANNELS 3 Xrotation Yrotation Zrotation
					JOINT newVegas:RightToeBase
					{
						OFFSET -0.943001 -26.722004 15.023500
						CHANNELS 3 Xrotation Yrotation Zrotation
						End Site
						{
							OFFSET 0.000000 30.670187 0.000000
						}
					}
				}
				JOINT newVegas:Right_PantLeg
				{
					OFFSET -0.661674 -9.044716 -1.108900
					CHANNELS 3 Xrotation Yrotation Zrotation
					End Site
					{
						OFFSET -1.415958 20.635269 0.000000
					}
				}
			}
		}
	}
	JOINT newVegas:Spine
	{
		OFFSET 0.000000 10.199997 -0.299500
		CHANNELS 3 Xrotation Yrotation Zrotation
		JOINT newVegas:Spine1
		{
			OFFSET 0.000000 11.900002 -1.516600
			CHANNELS 3 Xrotation Yrotation Zrotation
			JOINT newVegas:Spine2
			{
				OFFSET 0.000000 13.600006 -2.842500
				CHANNELS 3 Xrotation Yrotation Zrotation
				JOINT newVegas:Neck
				{
					OFFSET 0.000000 9.624100 -2.890100
					CHANNELS 3 Xrotation Yrotation Zrotation
					JOINT newVegas:Head
					{
						OFFSET 0.000000 14.068802 -1.351900
						CHANNELS 3 Xrotation Yrotation Zrotation
						JOINT newVegas:Hair_Back
						{
							OFFSET 0.000000 3.231903 -17.524799
							CHANNELS 3 Xrotation Yrotation Zrotation
							End Site
							{
								OFFSET 0.000000 19.849884 0.000000
							}
						}
						JOINT newVegas:Hair_Front
						{
							OFFSET 0.000000 31.260406 4.573800
							CHANNELS 3 Xrotation Yrotation Zrotation
							JOINT newVegas:Hair_Front1
							{
								OFFSET 0.000000 2.284103 11.993300
								CHANNELS 3 Xrotation Yrotation Zrotation
								JOINT newVegas:Hair_Front2
								{
									OFFSET 0.000000 2.284103 11.993300
									CHANNELS 3 Xrotation Yrotation Zrotation
									End Site
									{
										OFFSET 0.000000 12.208862 0.000000
									}
								}
							}
						}
						JOINT newVegas:Jowel
						{
							OFFSET 0.000000 -7.458206 6.864100
							CHANNELS 3 Xrotation Yrotation Zrotation
							End Site
							{
								OFFSET 0.000000 19.849884 0.000000
							}
						}
					}
				}
				JOINT newVegas:LeftShoulder
				{
					OFFSET 15.263000 10.923401 -0.547700
					CHANNELS 3 Xrotation Yrotation Zrotation
					JOINT newVegas:LeftArm
					{
						OFFSET 25.438599 -2.830597 -13.032500
						CHANNELS 3 Xrotation Yrotation Zrotation
						JOINT newVegas:LeftForeArm
						{
							OFFSET 29.960503 0.000000 0.000000
							CHANNELS 3 Xrotation Yrotation Zrotation
							JOINT newVegas:LeftHand
							{
								OFFSET 27.849251 0.000000 0.000000
								CHANNELS 3 Xrotation Yrotation Zrotation
								JOINT newVegas:LeftHandThumb1
								{
									OFFSET 4.487587 -3.305161 6.305391
									CHANNELS 3 Xrotation Yrotation Zrotation
									JOINT newVegas:LeftHandThumb2
									{
										OFFSET 5.480453 -3.164139 3.164143
										CHANNELS 3 Xrotation Yrotation Zrotation
										JOINT newVegas:LeftHandThumb3
										{
											OFFSET 5.159721 -2.978973 2.978967
											CHANNELS 3 Xrotation Yrotation Zrotation
											End Site
											{
												OFFSET 2.494507 5.926697 1.738678
											}
										}
									}
								}
								JOINT newVegas:LeftHandIndex1
								{
									OFFSET 18.578728 -0.527832 5.208049
									CHANNELS 3 Xrotation Yrotation Zrotation
									JOINT newVegas:LeftHandIndex2
									{
										OFFSET 3.192009 0.000000 0.000000
										CHANNELS 3 Xrotation Yrotation Zrotation
										JOINT newVegas:LeftHandIndex3
										{
											OFFSET 3.835129 0.000000 0.000000
											CHANNELS 3 Xrotation Yrotation Zrotation
											End Site
											{
												OFFSET -0.034599 3.816971 0.371180
											}
										}
									}
								}
								JOINT newVegas:LeftHandMiddle1
								{
									OFFSET 18.476105 0.000000 0.000000
									CHANNELS 3 Xrotation Yrotation Zrotation
									JOINT newVegas:LeftHandMiddle2
									{
										OFFSET 3.324875 0.000000 0.000000
										CHANNELS 3 Xrotation Yrotation Zrotation
										JOINT newVegas:LeftHandMiddle3
										{
											OFFSET 4.596550 0.000000 0.000000
											CHANNELS 3 Xrotation Yrotation Zrotation
											End Site
											{
												OFFSET 0.057701 4.578827 0.399218
											}
										}
									}
								}
								JOINT newVegas:LeftHandRing1
								{
									OFFSET 17.732719 0.121887 -4.201567
									CHANNELS 3 Xrotation Yrotation Zrotation
									JOINT newVegas:LeftHandRing2
									{
										OFFSET 2.733170 0.000000 0.000000
										CHANNELS 3 Xrotation Yrotation Zrotation
										JOINT newVegas:LeftHandRing3
										{
											OFFSET 3.178268 0.000000 0.000000
											CHANNELS 3 Xrotation Yrotation Zrotation
											End Site
											{
												OFFSET 0.119102 3.170624 0.185394
											}
										}
									}
								}
								JOINT newVegas:LeftHandPinky1
								{
									OFFSET 15.989624 -0.606689 -7.535461
									CHANNELS 3 Xrotation Yrotation Zrotation
									JOINT newVegas:LeftHandPinky2
									{
										OFFSET 2.538986 0.000000 0.000000
										CHANNELS 3 Xrotation Yrotation Zrotation
										JOINT newVegas:LeftHandPinky3
										{
											OFFSET 2.593102 0.000000 0.000000
											CHANNELS 3 Xrotation Yrotation Zrotation
											End Site
											{
												OFFSET -0.150902 2.584198 0.152708
											}
										}
									}
								}
							}
							JOINT newVegas:Left_Sleeve
							{
								OFFSET 0.267448 -0.649796 0.577675
								CHANNELS 3 Xrotation Yrotation Zrotation
								End Site
								{
									OFFSET 0.000000 15.991241 0.000000
								}
							}
							JOINT newVegas:Left_CapeC
							{
								OFFSET 15.715958 -8.608795 -6.935905
								CHANNELS 3 Xrotation Yrotation Zrotation
								JOINT newVegas:Left_CapeC1
								{
									OFFSET 0.000000 -8.688499 0.000000
									CHANNELS 3 Xrotation Yrotation Zrotation
									End Site
									{
										OFFSET 0.000000 8.688499 0.000000
									}
								}
							}
						}
						JOINT newVegas:Left_CapeB
						{
							OFFSET 26.118385 -8.608795 -7.079235
							CHANNELS 3 Xrotation Yrotation Zrotation
							JOINT newVegas:Left_CapeB1
							{
								OFFSET 0.000000 -8.688499 0.000000
								CHANNELS 3 Xrotation Yrotation Zrotation
								End Site
								{
									OFFSET 0.000000 8.688499 0.000000
								}
							}
						}
						JOINT newVegas:Left_CapeA
						{
							OFFSET 5.115639 -8.608795 -10.395809
							CHANNELS 3 Xrotation Yrotation Zrotation
							JOINT newVegas:Left_CapeA1
							{
								OFFSET 0.000000 -8.688499 0.000000
								CHANNELS 3 Xrotation Yrotation Zrotation
								End Site
								{
									OFFSET 0.000000 8.688499 0.000000
								}
							}
						}
					}
				}
				JOINT newVegas:RightShoulder
				{
					OFFSET -15.263000 10.923401 -0.547700
					CHANNELS 3 Xrotation Yrotation Zrotation
					JOINT newVegas:RightArm
					{
						OFFSET -25.438599 -2.830597 -13.032500
						CHANNELS 3 Xrotation Yrotation Zrotation
						JOINT newVegas:RightForeArm
						{
							OFFSET -29.960503 0.000000 0.000000
							CHANNELS 3 Xrotation Yrotation Zrotation
							JOINT newVegas:RightHand
							{
								OFFSET -27.849251 0.000000 0.000000
								CHANNELS 3 Xrotation Yrotation Zrotation
								JOINT newVegas:RightHandThumb1
								{
									OFFSET -4.487587 -3.305161 6.305391
									CHANNELS 3 Xrotation Yrotation Zrotation
									JOINT newVegas:RightHandThumb2
									{
										OFFSET -5.480453 -3.164139 3.164143
										CHANNELS 3 Xrotation Yrotation Zrotation
										JOINT newVegas:RightHandThumb3
										{
											OFFSET -5.159721 -2.978973 2.978967
											CHANNELS 3 Xrotation Yrotation Zrotation
											End Site
											{
												OFFSET -2.494507 5.926697 1.738678
											}
										}
									}
								}
								JOINT newVegas:RightHandIndex1
								{
									OFFSET -18.578728 -0.527832 5.208049
									CHANNELS 3 Xrotation Yrotation Zrotation
									JOINT newVegas:RightHandIndex2
									{
										OFFSET -3.192009 0.000000 0.000000
										CHANNELS 3 Xrotation Yrotation Zrotation
										JOINT newVegas:RightHandIndex3
										{
											OFFSET -3.835129 0.000000 0.000000
											CHANNELS 3 Xrotation Yrotation Zrotation
											End Site
											{
												OFFSET 0.034599 3.816971 0.371180
											}
										}
									}
								}
								JOINT newVegas:RightHandMiddle1
								{
									OFFSET -18.476105 0.000000 0.000000
									CHANNELS 3 Xrotation Yrotation Zrotation
									JOINT newVegas:RightHandMiddle2
									{
										OFFSET -3.324875 0.000000 0.000000
										CHANNELS 3 Xrotation Yrotation Zrotation
										JOINT newVegas:RightHandMiddle3
										{
											OFFSET -4.596550 0.000000 0.000000
											CHANNELS 3 Xrotation Yrotation Zrotation
											End Site
											{
												OFFSET -0.057701 4.578827 0.399218
											}
										}
									}
								}
								JOINT newVegas:RightHandRing1
								{
									OFFSET -17.732719 0.121887 -4.201567
									CHANNELS 3 Xrotation Yrotation Zrotation
									JOINT newVegas:RightHandRing2
									{
										OFFSET -2.733170 0.000000 0.000000
										CHANNELS 3 Xrotation Yrotation Zrotation
										JOINT newVegas:RightHandRing3
										{
											OFFSET -3.178268 0.000000 0.000000
											CHANNELS 3 Xrotation Yrotation Zrotation
											End Site
											{
												OFFSET -0.119102 3.170624 0.185394
											}
										}
									}
								}
								JOINT newVegas:RightHandPinky1
								{
									OFFSET -15.989624 -0.606689 -7.535461
									CHANNELS 3 Xrotation Yrotation Zrotation
									JOINT newVegas:RightHandPinky2
									{
										OFFSET -2.538986 0.000000 0.000000
										CHANNELS 3 Xrotation Yrotation Zrotation
										JOINT newVegas:RightHandPinky3
										{
											OFFSET -2.593102 0.000000 0.000000
											CHANNELS 3 Xrotation Yrotation Zrotation
											End Site
											{
												OFFSET 0.150902 2.584198 0.152708
											}
										}
									}
								}
							}
							JOINT newVegas:Right_CapeC
							{
								OFFSET -15.715958 -8.608795 -6.935905
								CHANNELS 3 Xrotation Yrotation Zrotation
								JOINT newVegas:Right_CapeC1
								{
									OFFSET 0.000000 -8.688499 0.000000
									CHANNELS 3 Xrotation Yrotation Zrotation
									End Site
									{
										OFFSET 0.000000 8.688499 0.000000
									}
								}
							}
							JOINT newVegas:Right_Sleeve
							{
								OFFSET -0.267448 -0.649994 0.577675
								CHANNELS 3 Xrotation Yrotation Zrotation
								End Site
								{
									OFFSET 0.000000 15.991302 0.000000
								}
							}
						}
						JOINT newVegas:Right_CapeA
						{
							OFFSET -5.115540 -8.608795 -10.395824
							CHANNELS 3 Xrotation Yrotation Zrotation
							JOINT newVegas:Right_CapeA1
							{
								OFFSET 0.000000 -8.688499 0.000000
								CHANNELS 3 Xrotation Yrotation Zrotation
								End Site
								{
									OFFSET 0.000000 8.688499 0.000000
								}
							}
						}
						JOINT newVegas:Right_CapeB
						{
							OFFSET -26.118187 -8.608795 -7.079266
							CHANNELS 3 Xrotation Yrotation Zrotation
							JOINT newVegas:Right_CapeB1
							{
								OFFSET 0.000000 -8.688499 0.000000
								CHANNELS 3 Xrotation Yrotation Zrotation
								End Site
								{
									OFFSET 0.000000 8.688499 0.000000
								}
							}
						}
					}
				}
				JOINT newVegas:Left_Collar
				{
					OFFSET 18.625099 8.655502 8.828100
					CHANNELS 3 Xrotation Yrotation Zrotation
					JOINT newVegas:Left_Collar1
					{
						OFFSET 14.783401 10.540405 -1.259500
						CHANNELS 3 Xrotation Yrotation Zrotation
						End Site
						{
							OFFSET 0.000000 18.199875 0.000000
						}
					}
				}
				JOINT newVegas:Collar_Back
				{
					OFFSET 0.000000 15.630707 -20.132601
					CHANNELS 3 Xrotation Yrotation Zrotation
					End Site
					{
						OFFSET 0.000000 22.523010 0.000000
					}
				}
				JOINT newVegas:Left_Peck
				{
					OFFSET 17.239599 -5.132599 25.482599
					CHANNELS 3 Xrotation Yrotation Zrotation
					End Site
					{
						OFFSET 0.000000 22.523010 0.000000
					}
				}
				JOINT newVegas:Right_Peck
				{
					OFFSET -17.239599 -5.132202 25.482599
					CHANNELS 3 Xrotation Yrotation Zrotation
					End Site
					{
						OFFSET 0.000000 22.523010 0.000000
					}
				}
				JOINT newVegas:Right_Collar
				{
					OFFSET -18.625099 8.655792 8.828100
					CHANNELS 3 Xrotation Yrotation Zrotation
					JOINT newVegas:Right_Collar1
					{
						OFFSET -14.783401 10.539993 -1.259500
						CHANNELS 3 Xrotation Yrotation Zrotation
						End Site
						{
							OFFSET 0.000000 18.199631 0.000000
						}
					}
				}
			}
		}
		JOINT newVegas:Belly
		{
			OFFSET 0.000000 -6.540398 9.014299
			CHANNELS 3 Xrotation Yrotation Zrotation
			End Site
			{
				OFFSET 0.000000 11.566666 0.000000
			}
		}
	}
	JOINT newVegas:ElvisFacialAnim_Joint
	{
		OFFSET 1.000000 -95.330101 -8.825800
		CHANNELS 3 Xrotation Yrotation Zrotation
		End Site
		{
			OFFSET 0.000000 35.315800 0.000000
		}
	}
}
MOTION
Frames: 4
Frame Time: 0.016667
0.293175 79.672119 4.069522 11.724044 3.093528 -1.194441 -0.000001 0.000000 -0.000000 -56.092351 1.313670 5.031148 78.892278 7.325944 -0.663511 -33.438513 5.765045 -5.746967 0.000000 0.000000 -0.000000 -0.000000 0.000000 -0.000001 -50.001694 -15.146382 -5.501630 76.678613 -8.363338 -4.618903 -39.141536 -10.472582 4.564332 0.000000 -0.000000 0.000000 -0.000003 -0.000001 0.000000 9.929157 1.383498 1.115467 7.645338 0.753229 0.067568 7.636952 0.840686 0.048856 -4.598235 -0.585318 2.974855 -4.598222 -0.585319 2.974859 -0.000002 0.000000 0.000000 -4.598094 -0.585327 2.974856 -4.598448 -0.585300 2.974848 -0.000001 0.000001 0.000000 -0.000002 0.000000 0.000000 3.557358 -26.212550 4.772372 -62.403286 -21.804175 -66.738987 0.000311 -109.450448 0.000319 0.778325 -4.236625 14.397178 -15.245211 10.163100 26.456287 3.939046 7.948704 0.746825 0.000004 0.000000 -0.000004 -0.000010 0.000004 -0.000009 0.000014 0.000009 -0.000079 0.000001 0.000001 -0.000001 -0.000005 -0.001921 0.015959 -0.000002 0.001942 -0.016038 0.000002 -0.000002 -0.000003 -0.000007 0.000003 -0.000008 0.000004 0.000021 -0.000087 0.000000 -0.000004 0.000000 -0.018087 4.054254 0.511044 -0.018085 -4.054236 -0.511123 0.000000 -0.000005 0.000001 0.000000 0.000001 0.000003 0.000000 0.000001 0.000003 0.000000 0.000001 0.000003 -0.000001 -0.000001 0.000001 -0.000001 -0.000002 0.000001 -0.000001 -0.000001 0.000001 -0.000003 -0.000002 0.000000 1.209610 13.189585 10.689360 -58.736813 43.251203 51.659863 0.000268 106.371884 -0.000282 2.773297 -4.037756 -38.887706 -6.948212 -5.049360 -29.742994 4.637196 -8.634130 -0.225408 0.000001 -0.000006 0.000000 -0.000001 0.000003 -0.000004 0.000012 -0.000012 0.000086 0.000000 -0.000002 -0.000000 -0.000004 0.000000 -0.000007 0.000009 -0.000002 0.000089 0.000000 -0.000003 -0.000000 -0.000002 0.000005 0.000010 0.000009 -0.000013 0.000064 -0.000001 0.000001 -0.000000 -0.000004 0.000008 0.000004 0.000010 -0.000012 0.000082 0.000000 -0.000000 0.000000 0.000000 0.000002 0.000002 -0.000002 0.000002 0.000002 0.000000 0.000001 0.000001 -0.000001 -0.000002 0.000005 -0.000001 -0.000001 0.000004 -0.000001 -0.000002 0.000005 -0.000001 -0.000001 0.000004 0.000001 -0.000000 -0.000000 0.000001 -0.000000 -0.000000 0.000001 -0.000000 -0.000000 0.000001 -0.000000 -0.000000 0.000001 -0.000000 -0.000000 0.000001 -0.000000 -0.000000 0.000001 -0.000000 -0.000000 0.000001 -0.000000 -0.000000 -0.000001 0.000000 -0.000000 
0.295350 79.673279 4.072830 11.746723 3.089302 -1.199775 -0.000000 0.000000 0.000000 -56.111387 1.306355 5.049113 78.894026 7.321886 -0.691939 -33.435770 5.762353 -5.734830 -0.000000 -0.000000 -0.000000 -0.000002 -0.000001 0.000000 -50.016061 -15.149387 -5.492437 76.663669 -8.370338 -4.626998 -39.133026 -10.472010 4.571936 -0.000000 -0.000000 0.000000 -0.000003 0.000000 -0.000001 9.920797 1.391640 1.106706 7.639427 0.760472 0.063173 7.630970 0.847823 0.044426 -4.602213 -0.587724 2.980070 -4.602219 -0.587722 2.980070 -0.000001 0.000000 -0.000000 -4.602215 -0.587726 2.980070 -4.602135 -0.587730 2.980071 -0.000001 -0.000000 0.000000 -0.000001 0.000000 -0.000000 3.557360 -26.212550 4.772373 -62.419337 -21.858333 -66.778657 -0.000040 -109.501388 -0.000056 0.901638 -4.326310 14.359141 -15.245214 10.163098 26.456285 3.939046 7.948708 0.746821 0.000003 0.000003 -0.000002 -0.000011 0.000004 -0.000008 0.000013 0.000007 -0.000080 0.000001 -0.000005 -0.000001 -0.000006 -0.001922 0.015958 -0.000004 0.001944 -0.016037 0.000000 0.000000 -0.000002 -0.000007 0.000000 -0.000008 0.000001 0.000018 -0.000083 -0.000003 -0.000004 0.000002 -0.018089 4.054253 0.511044 -0.018083 -4.054240 -0.511125 -0.000001 0.000002 -0.000001 -0.000001 -0.000002 -0.000000 -0.000001 -0.000002 -0.000000 -0.000001 -0.000002 0.000000 0.000002 -0.000001 0.000001 0.000002 -0.000002 0.000001 0.000002 -0.000001 0.000001 -0.000000 -0.000002 0.000001 1.208781 13.185489 10.706561 -58.718481 43.222544 51.623171 -0.000314 106.496398 0.000331 2.902280 -4.000198 -38.894789 -6.948215 -5.049360 -29.742991 4.637190 -8.634128 -0.225408 0.000001 -0.000002 -0.000001 -0.000001 0.000005 -0.000003 0.000013 -0.000014 0.000087 0.000001 0.000004 -0.000000 -0.000003 0.000002 -0.000007 0.000009 -0.000007 0.000090 -0.000000 -0.000000 -0.000001 -0.000002 0.000007 0.000009 0.000008 -0.000013 0.000065 0.000000 0.000001 -0.000000 -0.000004 0.000007 0.000004 0.000010 -0.000012 0.000083 0.000000 0.000003 -0.000000 0.000000 -0.000002 0.000003 -0.000000 -0.000002 0.000006 0.000000 -0.000002 0.000004 -0.000002 0.000003 -0.000002 -0.000002 0.000003 -0.000000 -0.000002 0.000003 -0.000002 -0.000002 0.000003 -0.000000 0.000001 0.000000 -0.000000 0.000001 0.000000 -0.000000 0.000001 0.000000 -0.000000 0.000001 0.000000 -0.000000 0.000001 0.000000 -0.000000 0.000001 0.000000 -0.000000 0.000001 0.000000 -0.000000 0.000002 0.000000 -0.000000 -0.000000 0.000000 0.000000 
0.298127 79.673431 4.076962 11.767351 3.084139 -1.209043 0.000000 0.000000 0.000000 -56.131034 1.294404 5.068980 78.904340 7.315161 -0.724377 -33.435422 5.771289 -5.718676 -0.000000 -0.000000 -0.000000 -0.000001 -0.000002 0.000000 -50.026471 -15.155650 -5.481550 76.648834 -8.376098 -4.633868 -39.125506 -10.471611 4.579296 -0.000000 -0.000000 -0.000000 0.000003 0.000000 -0.000001 9.912050 1.402311 1.099207 7.633174 0.769255 0.058698 7.624632 0.856617 0.039881 -4.606034 -0.592502 2.989243 -4.606015 -0.592501 2.989243 0.000001 0.000000 -0.000000 -4.605957 -0.592512 2.989247 -4.605946 -0.592504 2.989244 0.000001 -0.000000 -0.000000 0.000001 0.000000 -0.000000 3.557353 -26.212552 4.772374 -62.439581 -21.913837 -66.819549 -0.000053 -109.545791 -0.000040 1.016398 -4.380413 14.319693 -15.245211 10.163097 26.456290 3.939046 7.948697 0.746822 0.000003 0.000002 -0.000004 -0.000010 -0.000001 -0.000008 0.000015 0.000011 -0.000080 -0.000001 -0.000004 -0.000001 -0.000005 -0.001923 0.015961 -0.000002 0.001946 -0.016036 0.000000 0.000001 -0.000000 -0.000006 0.000000 -0.000006 0.000002 0.000021 -0.000086 0.000000 0.000001 -0.000001 -0.018087 4.054252 0.511045 -0.018084 -4.054240 -0.511125 -0.000001 0.000000 -0.000000 0.000001 -0.000003 0.000003 0.000001 -0.000003 0.000003 0.000000 -0.000002 0.000003 0.000003 0.000000 -0.000001 0.000003 -0.000001 0.000000 0.000003 0.000000 -0.000001 0.000001 -0.000001 -0.000000 1.207720 13.175776 10.734723 -58.706862 43.206117 51.589648 -0.000010 106.607232 -0.000015 2.994832 -3.971780 -38.905994 -6.948213 -5.049359 -29.743001 4.637194 -8.634131 -0.225408 -0.000000 0.000000 0.000001 -0.000002 -0.000001 -0.000005 0.000012 -0.000014 0.000086 -0.000001 -0.000000 -0.000000 -0.000004 -0.000000 -0.000007 0.000009 -0.000008 0.000090 0.000001 0.000000 -0.000001 -0.000002 0.000003 0.000010 0.000009 -0.000011 0.000065 0.000000 -0.000003 -0.000000 -0.000004 0.000002 0.000004 0.000010 -0.000010 0.000083 -0.000000 0.000002 0.000000 -0.000001 0.000000 -0.000000 -0.000001 -0.000003 0.000002 -0.000001 0.000000 -0.000002 0.000000 -0.000004 0.000000 0.000000 -0.000003 0.000002 0.000000 -0.000004 0.000000 0.000001 -0.000003 0.000002 -0.000002 0.000000 -0.000000 -0.000002 0.000000 -0.000000 -0.000002 0.000000 -0.000000 -0.000002 0.000000 -0.000000 -0.000002 0.000000 -0.000000 -0.000002 0.000000 -0.000000 -0.000002 0.000000 -0.000000 -0.000000 -0.000000 -0.000000 0.000000 0.000000 0.000000 
0.301835 79.672630 4.082037 11.785795 3.077918 -1.221226 -0.000000 0.000000 0.000000 -56.150586 1.282857 5.089185 78.920780 7.306341 -0.754953 -33.437796 5.788582 -5.700053 -0.000000 0.000000 -0.000000 0.000004 0.000000 -0.000000 -50.033024 -15.163995 -5.470972 76.634572 -8.381085 -4.638233 -39.119140 -10.469495 4.586881 0.000000 -0.000000 -0.000000 0.000003 0.000001 -0.000000 9.903064 1.416033 1.092593 7.626653 0.780095 0.054114 7.617964 0.867543 0.035189 -4.610726 -0.599759 3.001802 -4.610726 -0.599758 3.001805 0.000000 0.000000 -0.000000 -4.610727 -0.599754 3.001800 -4.610793 -0.599755 3.001801 0.000001 -0.000000 -0.000000 0.000000 0.000000 -0.000000 3.557360 -26.212550 4.772373 -62.470372 -21.974021 -66.864519 -0.000146 -109.579751 -0.000122 1.123971 -4.400893 14.281691 -15.245214 10.163095 26.456289 3.939045 7.948699 0.746823 0.000004 0.000004 -0.000002 -0.000012 -0.000001 -0.000010 0.000015 0.000012 -0.000079 -0.000001 0.000004 0.000001 -0.000007 -0.001925 0.015958 -0.000002 0.001944 -0.016035 0.000001 -0.000001 0.000002 -0.000008 0.000000 -0.000008 0.000003 0.000021 -0.000084 -0.000000 0.000001 0.000000 -0.018090 4.054251 0.511041 -0.018083 -4.054240 -0.511124 -0.000001 -0.000002 -0.000000 -0.000000 0.000001 -0.000000 -0.000000 0.000001 -0.000000 -0.000001 0.000001 0.000000 0.000000 0.000002 -0.000002 0.000000 0.000001 -0.000002 0.000000 0.000002 -0.000002 -0.000002 0.000001 -0.000003 1.206694 13.162148 10.768369 -58.707634 43.191152 51.562724 0.000730 106.707055 -0.000738 3.052709 -3.952017 -38.913336 -6.948217 -5.049363 -29.742991 4.637193 -8.634128 -0.225409 0.000000 -0.000004 -0.000001 -0.000002 0.000005 -0.000004 0.000013 -0.000009 0.000087 -0.000000 0.000000 -0.000001 -0.000003 0.000006 -0.000007 0.000009 -0.000010 0.000088 -0.000000 -0.000001 0.000000 -0.000002 0.000006 0.000010 0.000009 -0.000006 0.000064 -0.000000 0.000004 0.000000 -0.000004 0.000007 0.000004 0.000011 -0.000008 0.000083 0.000000 0.000003 0.000000 0.000001 0.000001 0.000002 -0.000001 -0.000001 0.000002 0.000001 0.000001 -0.000001 0.000000 0.000001 0.000002 0.000000 0.000002 0.000003 0.000000 0.000001 0.000002 0.000000 0.000002 0.000003 0.000000 0.000000 -0.000000 0.000000 0.000000 -0.000000 0.000000 0.000000 -0.000000 0.000000 0.000000 -0.000000 0.000000 0.000000 -0.000000 0.000000 0.000000 -0.000000 0.000000 0.000000 -0.000000 0.000000 -0.000000 0.000000 -0.000000 0.000000 0.000000 
